<?xml version="1.0" encoding="utf-8"?>
<!-- Generator: Adobe Illustrator 23.1.0, SVG Export Plug-In . SVG Version: 6.00 Build 0)  -->
<svg version="1.1" id="Capa_1" xmlns="http://www.w3.org/2000/svg" xmlns:xlink="http://www.w3.org/1999/xlink" x="0px" y="0px"
	 viewBox="0 0 405.8 405.8" style="enable-background:new 0 0 405.8 405.8;" xml:space="preserve">
<style type="text/css">
	.st0{fill:#FFFFFF;}
</style>
<g>
	<g>
		<ellipse class="st0" cx="357.3" cy="38.1" rx="58.6" ry="38.1"/>
		<g>
			<path class="st0" d="M521.3,58c-11.8-5.7-28.4-4.1-37.1,3.6l-52.3,45.8l-50.6-11.2l25.8,2.2c-3.8-8.3-14.7-14.8-28.7-16.1
				c-37.2-3.4-64-5.6-82.4-7c-9.6-0.7-19.2,0.6-27.5,3.8l-90.9,34.8c-8.7,3.3-13.7,9.5-13.1,16.1l8.3,78.5c1,9.5,13.6,16.7,28.3,16
				c14.6-0.7,25.7-8.9,24.7-18.4l-7.2-67.8l34.9-13.3L231.1,218l-4.8,60.7l-114.8,12.9c-17.3,1.9-29,12.7-26,23.9
				c3,11.3,19.5,18.8,36.8,16.9l139.5-15.6c14.5-1.6,25.4-9.5,26.4-19l6.6-63.2l37.7,4l36.5,50.4l15.5,95.3
				c1.8,11.4,17.5,19.6,35,18.4c17.5-1.2,30.2-11.4,28.3-22.8l-16.1-98.8c-0.4-2.3-1.3-4.6-2.9-6.7l-43.4-59.9l15.3-71.8l-36.7-14
				L433,144c11,2.4,23,0,29.9-6l63.9-55.9C535.6,74.4,533.1,63.6,521.3,58L521.3,58z"/>
		</g>
	</g>
</g>
</svg>
